<svg width="20" height="20" viewBox="0 0 20 20" fill="none" xmlns="http://www.w3.org/2000/svg">
<g id="Icon linear">
<path id="Vector" d="M16.6665 9.16667H3.33317M16.6665 9.16667C17.587 9.16667 18.3332 9.91286 18.3332 10.8333V14.1667C18.3332 16.0076 16.8408 17.5 14.9998 17.5H4.99984C3.15889 17.5 1.6665 16.0076 1.6665 14.1667V10.8333C1.6665 9.91286 2.4127 9.16667 3.33317 9.16667M16.6665 9.16667V7.5C16.6665 6.57953 15.9203 5.83333 14.9998 5.83333M3.33317 9.16667V7.5C3.33317 6.57953 4.07936 5.83333 4.99984 5.83333M14.9998 5.83333H4.99984M14.9998 5.83333V4.16667C14.9998 3.24619 14.2536 2.5 13.3332 2.5H6.6665C5.74603 2.5 4.99984 3.24619 4.99984 4.16667V5.83333M8.33317 11.6667H11.6665" stroke="#494E57" stroke-width="1.5" stroke-linecap="round"/>
</g>
</svg>
