<svg width="20" height="20" viewBox="0 0 20 20" fill="none" xmlns="http://www.w3.org/2000/svg">
<g id="icons">
<path id="Vector" d="M13.3333 7.08268V5.62435C13.3333 5.23757 13.1737 4.86664 12.8896 4.59315C12.6054 4.31966 12.22 4.16602 11.8182 4.16602H6.51515C6.11331 4.16602 5.72792 4.31966 5.44378 4.59315C5.15963 4.86664 5 5.23757 5 5.62435V14.3743C5 14.7611 5.15963 15.1321 5.44378 15.4055C5.72792 15.679 6.11331 15.8327 6.51515 15.8327H11.8182C12.22 15.8327 12.6054 15.679 12.8896 15.4055C13.1737 15.1321 13.3333 14.7611 13.3333 14.3743V12.916" stroke="#F54848" stroke-width="1.5" stroke-linecap="round" stroke-linejoin="round"/>
<path id="Vector_2" d="M9.16699 10H18.3337L16.042 7.5" stroke="#F54848" stroke-width="1.5" stroke-linecap="round" stroke-linejoin="round"/>
<path id="Vector_3" d="M15.833 12.5L18.333 10" stroke="#F54848" stroke-width="1.5" stroke-linecap="round" stroke-linejoin="round"/>
</g>
</svg>
