<svg width="20" height="20" viewBox="0 0 20 20" fill="none" xmlns="http://www.w3.org/2000/svg">
<g id="icons">
<path id="Vector" d="M6.66699 6.66732C6.66699 7.55137 7.01818 8.39922 7.6433 9.02434C8.26842 9.64946 9.11627 10.0007 10.0003 10.0007C10.8844 10.0007 11.7322 9.64946 12.3573 9.02434C12.9825 8.39922 13.3337 7.55137 13.3337 6.66732C13.3337 5.78326 12.9825 4.93542 12.3573 4.31029C11.7322 3.68517 10.8844 3.33398 10.0003 3.33398C9.11627 3.33398 8.26842 3.68517 7.6433 4.31029C7.01818 4.93542 6.66699 5.78326 6.66699 6.66732Z" stroke="#333333" stroke-width="1.5" stroke-linecap="round" stroke-linejoin="round"/>
<path id="Vector_2" d="M5 17.5V15.8333C5 14.9493 5.35119 14.1014 5.97631 13.4763C6.60143 12.8512 7.44928 12.5 8.33333 12.5H11.6667C12.5507 12.5 13.3986 12.8512 14.0237 13.4763C14.6488 14.1014 15 14.9493 15 15.8333V17.5" stroke="#333333" stroke-width="1.5" stroke-linecap="round" stroke-linejoin="round"/>
</g>
</svg>
