<svg width="20" height="20" viewBox="0 0 20 20" fill="none" xmlns="http://www.w3.org/2000/svg">
<g id="Icon linear" clip-path="url(#clip0_1293_8149)">
<path id="Vector" d="M2.5 6.66602C2.5 6.00297 2.76339 5.36709 3.23223 4.89825C3.70107 4.42941 4.33696 4.16602 5 4.16602H15C15.663 4.16602 16.2989 4.42941 16.7678 4.89825C17.2366 5.36709 17.5 6.00297 17.5 6.66602V13.3327C17.5 13.9957 17.2366 14.6316 16.7678 15.1004C16.2989 15.5693 15.663 15.8327 15 15.8327H5C4.33696 15.8327 3.70107 15.5693 3.23223 15.1004C2.76339 14.6316 2.5 13.9957 2.5 13.3327V6.66602Z" stroke="#494E57" stroke-width="1.5" stroke-linecap="round" stroke-linejoin="round"/>
<path id="Vector_2" d="M2.5 8.33398H17.5" stroke="#494E57" stroke-width="1.5" stroke-linecap="round" stroke-linejoin="round"/>
<path id="Vector_3" d="M5.8335 12.5H5.84183" stroke="#494E57" stroke-width="1.5" stroke-linecap="round" stroke-linejoin="round"/>
<path id="Vector_4" d="M9.1665 12.5H10.8332" stroke="#494E57" stroke-width="1.5" stroke-linecap="round" stroke-linejoin="round"/>
</g>
<defs>
<clipPath id="clip0_1293_8149">
<rect width="20" height="20" fill="white"/>
</clipPath>
</defs>
</svg>
