<svg width="24" height="24" viewBox="0 0 24 24" fill="none" xmlns="http://www.w3.org/2000/svg">
<mask id="path-1-inside-1_1246_8557" fill="white">
<path d="M17.1429 12.8571H12.8571V17.1429C12.8571 17.3702 12.7668 17.5882 12.6061 17.7489C12.4453 17.9097 12.2273 18 12 18C11.7727 18 11.5547 17.9097 11.3939 17.7489C11.2332 17.5882 11.1429 17.3702 11.1429 17.1429V12.8571H6.85714C6.62981 12.8571 6.4118 12.7668 6.25105 12.6061C6.09031 12.4453 6 12.2273 6 12C6 11.7727 6.09031 11.5547 6.25105 11.3939C6.4118 11.2332 6.62981 11.1429 6.85714 11.1429H11.1429V6.85714C11.1429 6.62981 11.2332 6.4118 11.3939 6.25105C11.5547 6.09031 11.7727 6 12 6C12.2273 6 12.4453 6.09031 12.6061 6.25105C12.7668 6.4118 12.8571 6.62981 12.8571 6.85714V11.1429H17.1429C17.3702 11.1429 17.5882 11.2332 17.7489 11.3939C17.9097 11.5547 18 11.7727 18 12C18 12.2273 17.9097 12.4453 17.7489 12.6061C17.5882 12.7668 17.3702 12.8571 17.1429 12.8571Z"/>
</mask>
<path d="M17.1429 12.8571H12.8571V17.1429C12.8571 17.3702 12.7668 17.5882 12.6061 17.7489C12.4453 17.9097 12.2273 18 12 18C11.7727 18 11.5547 17.9097 11.3939 17.7489C11.2332 17.5882 11.1429 17.3702 11.1429 17.1429V12.8571H6.85714C6.62981 12.8571 6.4118 12.7668 6.25105 12.6061C6.09031 12.4453 6 12.2273 6 12C6 11.7727 6.09031 11.5547 6.25105 11.3939C6.4118 11.2332 6.62981 11.1429 6.85714 11.1429H11.1429V6.85714C11.1429 6.62981 11.2332 6.4118 11.3939 6.25105C11.5547 6.09031 11.7727 6 12 6C12.2273 6 12.4453 6.09031 12.6061 6.25105C12.7668 6.4118 12.8571 6.62981 12.8571 6.85714V11.1429H17.1429C17.3702 11.1429 17.5882 11.2332 17.7489 11.3939C17.9097 11.5547 18 11.7727 18 12C18 12.2273 17.9097 12.4453 17.7489 12.6061C17.5882 12.7668 17.3702 12.8571 17.1429 12.8571Z" fill="black"/>
<path d="M12.8571 12.8571V10.1905H10.1905V12.8571H12.8571ZM11.1429 12.8571H13.8095V10.1905H11.1429V12.8571ZM11.1429 11.1429V13.8095H13.8095V11.1429H11.1429ZM12 6V8.66667V6ZM12.8571 11.1429H10.1905V13.8095H12.8571V11.1429ZM17.1429 10.1905H12.8571V15.5238H17.1429V10.1905ZM10.1905 12.8571V17.1429H15.5238V12.8571H10.1905ZM10.1905 17.1429C10.1905 16.6629 10.3811 16.2027 10.7205 15.8633L14.4917 19.6346C15.1526 18.9737 15.5238 18.0774 15.5238 17.1429H10.1905ZM10.7205 15.8633C11.0598 15.524 11.5201 15.3333 12 15.3333V20.6667C12.9346 20.6667 13.8309 20.2954 14.4917 19.6346L10.7205 15.8633ZM12 15.3333C12.4799 15.3333 12.9402 15.524 13.2795 15.8633L9.50829 19.6346C10.1691 20.2954 11.0654 20.6667 12 20.6667V15.3333ZM13.2795 15.8633C13.6189 16.2027 13.8095 16.6629 13.8095 17.1429H8.47619C8.47619 18.0774 8.84745 18.9737 9.50829 19.6346L13.2795 15.8633ZM13.8095 17.1429V12.8571H8.47619V17.1429H13.8095ZM11.1429 10.1905H6.85714V15.5238H11.1429V10.1905ZM6.85714 10.1905C7.33706 10.1905 7.79732 10.3811 8.13667 10.7205L4.36543 14.4917C5.02627 15.1526 5.92257 15.5238 6.85714 15.5238V10.1905ZM8.13667 10.7205C8.47602 11.0598 8.66667 11.5201 8.66667 12H3.33333C3.33333 12.9346 3.70459 13.8309 4.36543 14.4917L8.13667 10.7205ZM8.66667 12C8.66667 12.4799 8.47602 12.9402 8.13667 13.2795L4.36543 9.50829C3.70459 10.1691 3.33333 11.0654 3.33333 12H8.66667ZM8.13667 13.2795C7.79732 13.6189 7.33706 13.8095 6.85714 13.8095V8.47619C5.92257 8.47619 5.02627 8.84745 4.36543 9.50829L8.13667 13.2795ZM6.85714 13.8095H11.1429V8.47619H6.85714V13.8095ZM13.8095 11.1429V6.85714H8.47619V11.1429H13.8095ZM13.8095 6.85714C13.8095 7.33706 13.6189 7.79732 13.2795 8.13667L9.50829 4.36543C8.84745 5.02628 8.47619 5.92257 8.47619 6.85714H13.8095ZM13.2795 8.13667C12.9402 8.47602 12.4799 8.66667 12 8.66667V3.33333C11.0654 3.33333 10.1691 3.70459 9.50829 4.36543L13.2795 8.13667ZM12 8.66667C11.5201 8.66667 11.0598 8.47602 10.7205 8.13667L14.4917 4.36543C13.8309 3.70459 12.9346 3.33333 12 3.33333V8.66667ZM10.7205 8.13667C10.3811 7.79732 10.1905 7.33706 10.1905 6.85714H15.5238C15.5238 5.92257 15.1526 5.02628 14.4917 4.36543L10.7205 8.13667ZM10.1905 6.85714V11.1429H15.5238V6.85714H10.1905ZM12.8571 13.8095H17.1429V8.47619H12.8571V13.8095ZM17.1429 13.8095C16.6629 13.8095 16.2027 13.6189 15.8633 13.2795L19.6346 9.50829C18.9737 8.84745 18.0774 8.47619 17.1429 8.47619V13.8095ZM15.8633 13.2795C15.524 12.9402 15.3333 12.4799 15.3333 12H20.6667C20.6667 11.0654 20.2954 10.1691 19.6346 9.50829L15.8633 13.2795ZM15.3333 12C15.3333 11.5201 15.524 11.0598 15.8633 10.7205L19.6346 14.4917C20.2954 13.8309 20.6667 12.9346 20.6667 12H15.3333ZM15.8633 10.7205C16.2027 10.3811 16.6629 10.1905 17.1429 10.1905V15.5238C18.0774 15.5238 18.9737 15.1526 19.6346 14.4917L15.8633 10.7205Z" fill="#0275DD" mask="url(#path-1-inside-1_1246_8557)"/>
</svg>
