<svg width="20" height="20" viewBox="0 0 20 20" fill="none" xmlns="http://www.w3.org/2000/svg">
<g id="Icon linear" clip-path="url(#clip0_1246_10537)">
<path id="Vector" d="M3.3335 15.8327C3.3335 16.2747 3.50909 16.6986 3.82165 17.0112C4.13421 17.3238 4.55814 17.4993 5.00016 17.4993C5.44219 17.4993 5.86611 17.3238 6.17867 17.0112C6.49123 16.6986 6.66683 16.2747 6.66683 15.8327C6.66683 15.3907 6.49123 14.9667 6.17867 14.6542C5.86611 14.3416 5.44219 14.166 5.00016 14.166C4.55814 14.166 4.13421 14.3416 3.82165 14.6542C3.50909 14.9667 3.3335 15.3907 3.3335 15.8327Z" stroke="#494E57" stroke-width="1.5" stroke-linecap="round" stroke-linejoin="round"/>
<path id="Vector_2" d="M12.5 15.8327C12.5 16.2747 12.6756 16.6986 12.9882 17.0112C13.3007 17.3238 13.7246 17.4993 14.1667 17.4993C14.6087 17.4993 15.0326 17.3238 15.3452 17.0112C15.6577 16.6986 15.8333 16.2747 15.8333 15.8327C15.8333 15.3907 15.6577 14.9667 15.3452 14.6542C15.0326 14.3416 14.6087 14.166 14.1667 14.166C13.7246 14.166 13.3007 14.3416 12.9882 14.6542C12.6756 14.9667 12.5 15.3907 12.5 15.8327Z" stroke="#494E57" stroke-width="1.5" stroke-linecap="round" stroke-linejoin="round"/>
<path id="Vector_3" d="M14.1668 14.1667H5.00016V2.5H3.3335" stroke="#494E57" stroke-width="1.5" stroke-linecap="round" stroke-linejoin="round"/>
<path id="Vector_4" d="M5 4.16602L16.6667 4.99935L15.8333 10.8327H5" stroke="#494E57" stroke-width="1.5" stroke-linecap="round" stroke-linejoin="round"/>
</g>
<defs>
<clipPath id="clip0_1246_10537">
<rect width="20" height="20" fill="white"/>
</clipPath>
</defs>
</svg>
