<svg width="20" height="20" viewBox="0 0 20 20" fill="none" xmlns="http://www.w3.org/2000/svg">
<g id="Icon linear">
<g id="Vector">
<path fill-rule="evenodd" clip-rule="evenodd" d="M6.77436 14.2729C6.77436 13.9188 7.0632 13.6318 7.41952 13.6318H10.8604C11.2167 13.6318 11.5055 13.9188 11.5055 14.2729C11.5055 14.6269 11.2167 14.9139 10.8604 14.9139H7.41952C7.0632 14.9139 6.77436 14.6269 6.77436 14.2729Z" fill="#494E57"/>
<path fill-rule="evenodd" clip-rule="evenodd" d="M6.77436 11.7088C6.77436 11.3547 7.0632 11.0677 7.41952 11.0677H9.13995C9.49626 11.0677 9.78511 11.3547 9.78511 11.7088C9.78511 12.0628 9.49626 12.3498 9.13995 12.3498H7.41952C7.0632 12.3498 6.77436 12.0628 6.77436 11.7088Z" fill="#494E57"/>
<path fill-rule="evenodd" clip-rule="evenodd" d="M10.0002 2.94807C8.72945 2.94807 7.0231 3.08754 5.82968 3.20326C5.33447 3.25129 4.948 3.6436 4.90967 4.14096C4.79099 5.68063 4.62382 8.1767 4.62382 9.99935C4.62382 11.822 4.79099 14.3181 4.90967 15.8577C4.948 16.3551 5.33447 16.7474 5.82968 16.7954C7.0231 16.9112 8.72945 17.0506 10.0002 17.0506C11.2709 17.0506 12.9772 16.9112 14.1706 16.7954C14.6659 16.7474 15.0523 16.3551 15.0907 15.8577C15.2093 14.3181 15.3765 11.822 15.3765 9.99935C15.3765 9.41158 15.3591 8.75237 15.3314 8.07627H12.5815L12.5808 7.43525L12.5808 6.79422H15.2676C15.1087 4.76284 13.5235 3.14477 11.5055 2.99596V5.72584C11.5055 6.31589 11.987 6.79422 12.5808 6.79422L12.5808 7.43525L12.5815 8.07627C11.275 8.07627 10.2152 7.02395 10.2152 5.72584V2.94933C10.1422 2.9485 10.0705 2.94807 10.0002 2.94807ZM10.8809 1.68326C10.5761 1.67231 10.2795 1.66602 10.0002 1.66602C8.66144 1.66602 6.90092 1.81124 5.70434 1.92728C4.58107 2.0362 3.70895 2.92939 3.62311 4.04306C3.5044 5.58328 3.3335 8.12279 3.3335 9.99935C3.3335 11.8759 3.5044 14.4154 3.62311 15.9556C3.70895 17.0693 4.58107 17.9625 5.70434 18.0714C6.90092 18.1875 8.66144 18.3327 10.0002 18.3327C11.3389 18.3327 13.0994 18.1875 14.296 18.0714C15.4193 17.9625 16.2914 17.0693 16.3772 15.9556C16.4959 14.4154 16.6668 11.8759 16.6668 9.99935C16.6668 9.20927 16.6366 8.30402 16.593 7.40785C16.5928 7.40509 16.5927 7.40234 16.5926 7.3996C16.5831 7.2068 16.5731 7.01445 16.5626 6.82377C16.4125 4.09101 14.265 1.85554 11.4858 1.71017C11.2849 1.69966 11.0849 1.69063 10.8884 1.68353" fill="#494E57"/>
</g>
</g>
</svg>
