<svg width="20" height="20" viewBox="0 0 20 20" fill="none" xmlns="http://www.w3.org/2000/svg">
<g id="Icon linear" clip-path="url(#clip0_1293_8124)">
<path id="Vector" d="M13.3335 14.1673C13.3335 14.3883 13.4213 14.6003 13.5776 14.7566C13.7339 14.9129 13.9458 15.0007 14.1668 15.0007C14.3878 15.0007 14.5998 14.9129 14.7561 14.7566C14.9124 14.6003 15.0002 14.3883 15.0002 14.1673C15.0002 13.9463 14.9124 13.7343 14.7561 13.5781C14.5998 13.4218 14.3878 13.334 14.1668 13.334C13.9458 13.334 13.7339 13.4218 13.5776 13.5781C13.4213 13.7343 13.3335 13.9463 13.3335 14.1673Z" stroke="currentColor" stroke-width="1.5" stroke-linecap="round" stroke-linejoin="round"/>
<path id="Vector_2" d="M5 5.83333C5 6.05435 5.0878 6.26631 5.24408 6.42259C5.40036 6.57887 5.61232 6.66667 5.83333 6.66667C6.05435 6.66667 6.26631 6.57887 6.42259 6.42259C6.57887 6.26631 6.66667 6.05435 6.66667 5.83333C6.66667 5.61232 6.57887 5.40036 6.42259 5.24408C6.26631 5.0878 6.05435 5 5.83333 5C5.61232 5 5.40036 5.0878 5.24408 5.24408C5.0878 5.40036 5 5.61232 5 5.83333Z" stroke="currentColor" stroke-width="1.5" stroke-linecap="round" stroke-linejoin="round"/>
<path id="Vector_3" d="M5 15L15 5" stroke="currentColor" stroke-width="1.5" stroke-linecap="round" stroke-linejoin="round"/>
</g>
<defs>
<clipPath id="clip0_1293_8124">
<rect width="20" height="20" fill="white"/>
</clipPath>
</defs>
</svg>
