<svg xmlns="http://www.w3.org/2000/svg" xmlns:xlink="http://www.w3.org/1999/xlink"
     viewBox="206.14 350.82 611.72 66.42">
    <g fill="#4a515d">
        <path d="M206.142 416.85v-65.61h21.505c4.452 0 8.771.848 12.837 2.529 3.949 1.629 7.493 3.973 10.526 6.956 3.05 2.999 5.452 6.511 7.124 10.425 1.731 4.058 2.612 8.384 2.612 12.853s-.882 8.796-2.612 12.861c-1.673 3.924-4.066 7.435-7.116 10.45a32.83 32.83 0 0 1-10.526 6.991c-4.065 1.688-8.392 2.545-12.845 2.545h-21.505zm21.505-13.19c5.351 0 10.359-2.033 14.114-5.738 3.738-3.688 5.796-8.636 5.796-13.92 0-5.276-2.058-10.199-5.788-13.87-3.746-3.68-8.761-5.705-14.122-5.705h-8.316v39.231h8.316z"></path>
        <use xlink:href="#B"></use>
        <path d="M317.048 355.44l13.189-4.2v53.009h29.487v12.517h-42.676V355.44zm47.178 0l13.189-4.2v65.526h-13.189V355.44zm16.333-4.2h14.206l15.878 43.532 15.878-43.532h14.121l-24.731 65.526h-10.618l-24.732-65.526z"></path>
        <use xlink:href="#B" x="175.875"></use>
        <path d="M544.033 416.766h-15.936l-15.6-22.489v-12.794h2.52c3.973 0 6.946-.874 8.829-2.604 1.613-1.487 2.428-3.629 2.428-6.385 0-2.873-.84-5.057-2.495-6.485-1.696-1.47-4.385-2.251-7.754-2.251h-9.912v53.009h-13.189V351.24h24.11c3.688 0 7.015.529 9.904 1.571 2.848 1.033 5.284 2.579 7.242 4.587 3.621 3.722 5.536 8.997 5.536 15.264 0 5.62-1.554 10.266-4.62 13.811-2.134 2.462-4.948 4.343-8.4 5.612l17.338 24.682z"></path>
    </g>
    <g fill="#3a6859">
        <path d="M598.009 416.766h-15.936l-15.6-22.489v-12.794h2.52c3.973 0 6.946-.874 8.829-2.604 1.613-1.487 2.428-3.629 2.428-6.385 0-2.873-.84-5.057-2.495-6.485-1.696-1.47-4.385-2.251-7.754-2.251h-9.912v53.009H546.9V351.24h24.11c3.688 0 7.015.529 9.904 1.571 2.848 1.033 5.284 2.579 7.242 4.587 3.621 3.722 5.536 8.997 5.536 15.264 0 5.62-1.554 10.266-4.62 13.811-2.134 2.462-4.948 4.343-8.4 5.612l17.338 24.682zm18.196-2.268a33.06 33.06 0 0 1-10.535-7.099c-3.041-3.041-5.427-6.586-7.099-10.535-1.731-4.091-2.604-8.434-2.604-12.903a32.94 32.94 0 0 1 2.604-12.903 33.06 33.06 0 0 1 17.633-17.633c4.091-1.731 8.434-2.604 12.903-2.604s8.813.874 12.904 2.604a33.05 33.05 0 0 1 10.534 7.099 33.02 33.02 0 0 1 7.099 10.535 32.94 32.94 0 0 1 2.604 12.903 32.95 32.95 0 0 1-2.604 12.903 33.04 33.04 0 0 1-7.099 10.535 33.05 33.05 0 0 1-10.534 7.099c-4.091 1.731-8.434 2.604-12.904 2.604a32.93 32.93 0 0 1-12.903-2.604zm-1.21-44.642c-3.772 3.772-5.847 8.778-5.847 14.113s2.075 10.341 5.847 14.113 8.778 5.847 14.113 5.847 10.342-2.075 14.114-5.847a19.82 19.82 0 0 0 0-28.226c-3.772-3.772-8.788-5.847-14.114-5.847s-10.34 2.075-14.113 5.847zm68.302 45.331a25.82 25.82 0 0 1-8.233-5.553 25.95 25.95 0 0 1-5.552-8.233 25.78 25.78 0 0 1-2.042-10.089V351.24h13.189v40.071a12.75 12.75 0 0 0 12.727 12.727c7.015 0 12.726-5.713 12.726-12.727V351.24h13.19v40.071a25.78 25.78 0 0 1-2.042 10.089c-1.302 3.083-3.175 5.856-5.553 8.233a25.97 25.97 0 0 1-8.233 5.553 25.78 25.78 0 0 1-20.179 0zm57.01-51.43h-17.81V351.24h49.06v12.517h-18.062v53.009h-13.189v-53.009z"></path>
        <use xlink:href="#B" x="508.266"></use>
    </g>
    <defs>
        <path id="B"
              d="M267.173 416.766h42.423V404.5h-42.423v12.266zm0-26.379h42.423V377.87h-42.423v12.517zm0-39.147v12.517h42.423V351.24h-42.423z"></path>
    </defs>
</svg>