<svg xmlns="http://www.w3.org/2000/svg" id="svg326833" version="1.1" viewBox="206.14 350.82 611.72 66.41" height="22" width="200">
    <g id="logo-group">
        <g id="logo-center" transform="translate(156.1415566666666 0)">
            <g id="title"
               style="font-style:normal;font-weight:700;font-size:72px;line-height:1;font-family:'Brandmark1 Bold Color';font-variant-ligatures:normal;text-align:center;text-anchor:middle"
               transform="translate(0 0)">
                <g id="path326842" aria-label="D"
                   transform="translate(0 309.82) translate(50 41.419999999999995) scale(1.1666666666666667) translate(-250.45662 53.64)">
                    <path class="c1"
                          d="M76.5979,128.11865v-56.2373h18.43311c3.81641,0,7.51758,0.72705,11.00293,2.16748 c3.38477,1.39648,6.42285,3.40576,9.02246,5.96191c2.61426,2.5708,4.67285,5.58057,6.10645,8.93604 c1.4834,3.47803,2.23926,7.18604,2.23926,11.01709c0,3.83057-0.75586,7.53906-2.23926,11.02393 c-1.43359,3.36328-3.48535,6.37305-6.09961,8.95703c-2.60645,2.57129-5.6377,4.58789-9.02246,5.99219 c-3.48438,1.44727-7.19336,2.18164-11.00977,2.18164H76.5979z M95.03101,116.81299c4.58691,0,8.87891-1.74219,12.09766-4.91797 c3.2041-3.16113,4.96777-7.40234,4.96777-11.93115c0-4.52197-1.76367-8.7417-4.96094-11.88818 c-3.21094-3.1543-7.50977-4.88965-12.10449-4.88965h-7.12842v33.62695H95.03101z"
                          transform="translate(173.85872 -125.52135)" stroke-width="0" stroke-linejoin="miter"
                          stroke-miterlimit="2" fill="#3f5b56" stroke="#3f5b56"></path>
                </g>
                <g id="path326844" aria-label="E"
                   transform="translate(0 309.82) translate(111.03124999999999 41.419999999999995) scale(1.1666666666666667) translate(-302.76912 53.64)">
                    <path class="c1"
                          d="M81.8186,128.08252h36.36279v-10.51367H81.8186V128.08252z M81.8186,105.47217h36.36279v-10.729H81.8186 V105.47217z M81.8186,71.91748v10.729h36.36279v-10.729H81.8186z"
                          transform="translate(220.95052 -125.55748)" stroke-width="0" stroke-linejoin="miter"
                          stroke-miterlimit="2" fill="#3f5b56" stroke="#3f5b56"></path>
                </g>
                <g id="path326846" aria-label="L"
                   transform="translate(0 309.82) translate(160.90624999999997 41.419999999999995) scale(1.1666666666666667) translate(-345.51912 53.64)">
                    <path class="c1"
                          d="M81.71045,75.51782l11.30469-3.6001v45.43604h25.27441v10.72852h-36.5791V75.51782z"
                          transform="translate(263.80867 -125.55772)" stroke-width="0" stroke-linejoin="miter"
                          stroke-miterlimit="2" fill="#3f5b56" stroke="#3f5b56"></path>
                </g>
                <g id="path326848" aria-label="I"
                   transform="translate(0 309.82) translate(208.08406833333328 41.419999999999995) scale(1.1666666666666667) translate(-385.95725 53.64)">
                    <path class="c1" d="M94.34741,75.51758l11.30518-3.6001v56.16504H94.34741V75.51758z"
                          transform="translate(291.60984 -125.55748)" stroke-width="0" stroke-linejoin="miter"
                          stroke-miterlimit="2" fill="#3f5b56" stroke="#3f5b56"></path>
                </g>
                <g id="path326850" aria-label="V"
                   transform="translate(0 309.82) translate(224.4168183333333 41.419999999999995) scale(1.1666666666666667) translate(-399.95675 53.64)">
                    <path class="c1"
                          d="M74.25073,71.91748H86.427l13.60938,37.31348l13.60938-37.31348h12.10352l-21.19824,56.16504h-9.10156 L74.25073,71.91748z"
                          transform="translate(325.70602 -125.55748)" stroke-width="0" stroke-linejoin="miter"
                          stroke-miterlimit="2" fill="#3f5b56" stroke="#3f5b56"></path>
                </g>
                <g id="path326852" aria-label="E"
                   transform="translate(0 309.82) translate(286.90624999999994 41.419999999999995) scale(1.1666666666666667) translate(-453.51912 53.64)">
                    <path class="c1"
                          d="M81.8186,128.08252h36.36279v-10.51367H81.8186V128.08252z M81.8186,105.47217h36.36279v-10.729H81.8186 V105.47217z M81.8186,71.91748v10.729h36.36279v-10.729H81.8186z"
                          transform="translate(371.70052 -125.55748)" stroke-width="0" stroke-linejoin="miter"
                          stroke-miterlimit="2" fill="#3f5b56" stroke="#3f5b56"></path>
                </g>
                <g id="path326854" aria-label="R"
                   transform="translate(0 309.82) translate(336.78124999999994 41.419999999999995) scale(1.1666666666666667) translate(-496.26912 53.64)">
                    <path class="c1"
                          d="M121.90405,128.08252h-13.65918l-13.37109-19.27637V97.83984h2.16016 c3.40527,0,5.9541-0.74902,7.56738-2.23242c1.38281-1.27441,2.08105-3.11084,2.08105-5.47266 c0-2.4624-0.71973-4.33447-2.13867-5.55859c-1.4541-1.26025-3.75879-1.92969-6.64648-1.92969h-8.49609v45.43604H78.09595V71.91748 h20.66553c3.16113,0,6.0127,0.45361,8.48926,1.34619c2.44141,0.88574,4.5293,2.21094,6.20703,3.93164 c3.10352,3.18994,4.74512,7.71191,4.74512,13.0835c0,4.81738-1.33203,8.79932-3.95996,11.83789 c-1.8291,2.10986-4.24121,3.72266-7.2002,4.81006L121.90405,128.08252z"
                          transform="translate(418.17317 -125.55748)" stroke-width="0" stroke-linejoin="miter"
                          stroke-miterlimit="2" fill="#3f5b56" stroke="#3f5b56"></path>
                </g>
                <g id="path326856" aria-label="R"
                   transform="translate(0 309.82) translate(390.7578183333333 41.419999999999995) scale(1.1666666666666667) translate(-542.53475 53.64)">
                    <path class="c1"
                          d="M121.90405,128.08252h-13.65918l-13.37109-19.27637V97.83984h2.16016 c3.40527,0,5.9541-0.74902,7.56738-2.23242c1.38281-1.27441,2.08105-3.11084,2.08105-5.47266 c0-2.4624-0.71973-4.33447-2.13867-5.55859c-1.4541-1.26025-3.75879-1.92969-6.64648-1.92969h-8.49609v45.43604H78.09595V71.91748 h20.66553c3.16113,0,6.0127,0.45361,8.48926,1.34619c2.44141,0.88574,4.5293,2.21094,6.20703,3.93164 c3.10352,3.18994,4.74512,7.71191,4.74512,13.0835c0,4.81738-1.33203,8.79932-3.95996,11.83789 c-1.8291,2.10986-4.24121,3.72266-7.2002,4.81006L121.90405,128.08252z"
                          transform="translate(464.4388 -125.55748)" stroke-width="0" stroke-linejoin="miter"
                          stroke-miterlimit="2" fill="#576375" stroke="#576375"></path>
                </g>
                <g id="path326858" aria-label="O"
                   transform="translate(0 309.82) translate(439.8256366666667 40.99999999999999) scale(1.1666666666666667) translate(-584.59288 54)">
                    <path class="c1"
                          d="M88.93994,126.17456c-3.38477-1.43311-6.42285-3.47803-9.02979-6.08447 c-2.60645-2.60693-4.65137-5.64551-6.08447-9.02979c-1.4834-3.50684-2.23242-7.22949-2.23242-11.06006 s0.74902-7.55371,2.23242-11.06006c1.43311-3.38428,3.47803-6.42334,6.08447-9.02979 c2.60693-2.60645,5.64502-4.65137,9.02979-6.08447c3.50684-1.4834,7.22949-2.23242,11.05957-2.23242 c3.83105,0,7.55371,0.74902,11.06055,2.23242c3.38477,1.43311,6.42285,3.47803,9.0293,6.08447 c2.60742,2.60645,4.65234,5.64551,6.08496,9.02979c1.4834,3.50635,2.23242,7.22949,2.23242,11.06006 s-0.74902,7.55322-2.23242,11.06006c-1.43262,3.38428-3.47754,6.42285-6.08496,9.02979 c-2.60645,2.60645-5.64453,4.65137-9.0293,6.08447c-3.50684,1.4834-7.22949,2.23193-11.06055,2.23193 C96.16943,128.40649,92.44678,127.65796,88.93994,126.17456z M87.90283,87.9104c-3.2334,3.23291-5.01172,7.52441-5.01172,12.09717 c0,4.57227,1.77832,8.86377,5.01172,12.09668c3.2334,3.2334,7.52441,5.01172,12.09668,5.01172 c4.57324,0,8.86426-1.77832,12.09766-5.01172c3.23242-3.23291,5.01172-7.52441,5.01172-12.09668 c0-4.57275-1.7793-8.86426-5.01172-12.09717c-3.2334-3.23291-7.53223-5.01172-12.09766-5.01172 C95.43506,82.89868,91.13623,84.67749,87.90283,87.9104z"
                          transform="translate(512.99962 -125.5935)" stroke-width="0" stroke-linejoin="miter"
                          stroke-miterlimit="2" fill="#576375" stroke="#576375"></path>
                </g>
                <g id="path326860" aria-label="U"
                   transform="translate(0 309.82) translate(511.32800000000003 41.419999999999995) scale(1.1666666666666667) translate(-645.88062 53.64)">
                    <path class="c1"
                          d="M91.35181,126.53125c-2.64258-1.11621-5.01855-2.72266-7.05664-4.75977 c-2.03711-2.03809-3.63623-4.41455-4.75928-7.05713c-1.15918-2.74316-1.75-5.65234-1.75-8.64795V71.71973h11.30518v34.34668 c0,6.0127,4.89648,10.90918,10.90918,10.90918s10.9082-4.89648,10.9082-10.90918V71.71973h11.30566v34.34668 c0,2.99561-0.59082,5.90479-1.75,8.64795c-1.11621,2.64258-2.72168,5.01904-4.75977,7.05713 c-2.03809,2.03711-4.41406,3.63574-7.05664,4.75977c-2.74316,1.15918-5.65234,1.74902-8.64746,1.74902 C97.00415,128.28027,94.09595,127.69043,91.35181,126.53125z"
                          transform="translate(568.09473 -125.35973)" stroke-width="0" stroke-linejoin="miter"
                          stroke-miterlimit="2" fill="#576375" stroke="#576375"></path>
                </g>
                <g id="path326862" aria-label="T"
                   transform="translate(0 309.82) translate(566.3545683333334 41.419999999999995) scale(1.1666666666666667) translate(-693.04625 53.64)">
                    <path class="c1"
                          d="M94.23975,82.64648H78.97412v-10.729h42.05176v10.729h-15.48145v45.43604H94.23975V82.64648z"
                          transform="translate(614.07213 -125.55748)" stroke-width="0" stroke-linejoin="miter"
                          stroke-miterlimit="2" fill="#576375" stroke="#576375"></path>
                </g>
                <g id="path326864" aria-label="E"
                   transform="translate(0 309.82) translate(619.2968866666669 41.419999999999995) scale(1.1666666666666667) translate(-738.42538 53.64)">
                    <path class="c1"
                          d="M81.8186,128.08252h36.36279v-10.51367H81.8186V128.08252z M81.8186,105.47217h36.36279v-10.729H81.8186 V105.47217z M81.8186,71.91748v10.729h36.36279v-10.729H81.8186z"
                          transform="translate(656.60678 -125.55748)" stroke-width="0" stroke-linejoin="miter"
                          stroke-miterlimit="2" fill="#576375" stroke="#576375"></path>
                </g>
            </g>
        </g>
    </g>
</svg>