<svg width="20" height="20" viewBox="0 0 20 20" fill="none" xmlns="http://www.w3.org/2000/svg">
<g clip-path="url(#clip0_574_13995)">
<path d="M9.99935 1.66699C14.6018 1.66699 18.3327 5.39783 18.3327 10.0003C18.3344 12.1882 17.4756 14.289 15.9418 15.8492C14.4079 17.4094 12.322 18.3037 10.1344 18.3392C7.94676 18.3746 5.83296 17.5483 4.24935 16.0387C2.66573 14.529 1.73934 12.4571 1.67018 10.2703L1.66602 10.0003L1.66935 9.76699C1.79268 5.27283 5.47435 1.66699 9.99935 1.66699ZM10.0077 12.5003L9.90185 12.5062C9.69931 12.5303 9.51264 12.6278 9.37719 12.7803C9.24175 12.9328 9.16694 13.1297 9.16694 13.3337C9.16694 13.5376 9.24175 13.7345 9.37719 13.887C9.51264 14.0395 9.69931 14.1371 9.90185 14.1612L9.99935 14.167L10.1052 14.1612C10.3077 14.1371 10.4944 14.0395 10.6298 13.887C10.7653 13.7345 10.8401 13.5376 10.8401 13.3337C10.8401 13.1297 10.7653 12.9328 10.6298 12.7803C10.4944 12.6278 10.3077 12.5303 10.1052 12.5062L10.0077 12.5003ZM9.99935 5.83366C9.79524 5.83369 9.59823 5.90862 9.44571 6.04425C9.29318 6.17989 9.19573 6.36678 9.17185 6.56949L9.16602 6.66699V10.0003L9.17185 10.0978C9.19594 10.3004 9.29348 10.487 9.44599 10.6225C9.59849 10.7579 9.79538 10.8327 9.99935 10.8327C10.2033 10.8327 10.4002 10.7579 10.5527 10.6225C10.7052 10.487 10.8028 10.3004 10.8268 10.0978L10.8327 10.0003V6.66699L10.8268 6.56949C10.803 6.36678 10.7055 6.17989 10.553 6.04425C10.4005 5.90862 10.2035 5.83369 9.99935 5.83366Z" fill="white"/>
</g>
<defs>
<clipPath id="clip0_574_13995">
<rect width="20" height="20" fill="white"/>
</clipPath>
</defs>
</svg>
