<svg width="21" height="20" viewBox="0 0 21 20" fill="none" xmlns="http://www.w3.org/2000/svg">
<path d="M14.7416 6.97052L11.7111 10.001L14.7416 13.0314C14.9023 13.1922 14.9926 13.4102 14.9926 13.6375C14.9926 13.8649 14.9023 14.0829 14.7416 14.2436C14.5808 14.4044 14.3628 14.4947 14.1355 14.4947C13.9082 14.4947 13.6902 14.4044 13.5294 14.2436L10.499 11.2132L7.4685 14.2436C7.30775 14.4044 7.08973 14.4947 6.8624 14.4947C6.63508 14.4947 6.41706 14.4044 6.25631 14.2436C6.09557 14.0829 6.00526 13.8649 6.00526 13.6375C6.00526 13.4102 6.09557 13.1922 6.25631 13.0314L9.28677 10.001L6.25631 6.97052C6.09557 6.80977 6.00526 6.59176 6.00526 6.36443C6.00526 6.1371 6.09557 5.91908 6.25631 5.75834C6.41706 5.59759 6.63508 5.50728 6.8624 5.50728C7.08973 5.50728 7.30775 5.59759 7.4685 5.75834L10.499 8.78879L13.5294 5.75834C13.6902 5.59759 13.9082 5.50728 14.1355 5.50728C14.3628 5.50728 14.5808 5.59759 14.7416 5.75834C14.9023 5.91908 14.9926 6.1371 14.9926 6.36443C14.9926 6.59176 14.9023 6.80977 14.7416 6.97052Z" fill="#FBFBFB"/>
</svg>
