<svg width="20" height="20" viewBox="0 0 20 20" fill="none" xmlns="http://www.w3.org/2000/svg">
<g id="Icon linear">
<g id="Vector">
<path fill-rule="evenodd" clip-rule="evenodd" d="M7.80203 2.94807C6.33534 2.94807 5.14636 4.13705 5.14636 5.60374C5.14636 7.07044 6.33534 8.25942 7.80203 8.25942C9.26872 8.25942 10.4577 7.07044 10.4577 5.60374C10.4577 4.13705 9.26872 2.94807 7.80203 2.94807ZM3.86431 5.60374C3.86431 3.429 5.62729 1.66602 7.80203 1.66602C9.97678 1.66602 11.7398 3.429 11.7398 5.60374C11.7398 7.77849 9.97678 9.54147 7.80203 9.54147C5.62729 9.54147 3.86431 7.77849 3.86431 5.60374Z" fill="#494E57"/>
<path fill-rule="evenodd" clip-rule="evenodd" d="M6.17611 12.8382C4.39358 12.8382 2.94855 14.2832 2.94855 16.0657C2.94855 16.1544 2.96386 16.2157 2.97922 16.2504C2.9916 16.2783 3.00072 16.2837 3.00476 16.286C3.44444 16.5444 4.70928 17.0506 7.80203 17.0506C10.8948 17.0506 12.1593 16.5446 12.5989 16.2862C12.603 16.2839 12.6125 16.2783 12.6248 16.2504C12.6402 16.2157 12.6555 16.1544 12.6555 16.0657C12.6555 14.2832 11.2105 12.8382 9.42796 12.8382H6.17611ZM1.6665 16.0657C1.6665 13.5751 3.68552 11.5561 6.17611 11.5561H9.42796C11.9185 11.5561 13.9376 13.5751 13.9376 16.0657C13.9376 16.4947 13.7926 17.0718 13.2485 17.3915C12.5315 17.8129 11.0072 18.3327 7.80203 18.3327C4.59683 18.3327 3.07252 17.8129 2.35553 17.3915C1.81148 17.0718 1.6665 16.4947 1.6665 16.0657Z" fill="#494E57"/>
<path fill-rule="evenodd" clip-rule="evenodd" d="M12.9524 3.23869C13.0448 2.89693 13.3968 2.69475 13.7385 2.78712C15.1525 3.16928 16.1354 4.56559 16.1354 6.15319C16.1354 7.83071 14.9856 9.34319 13.373 9.5369C13.0215 9.57912 12.7023 9.3284 12.6601 8.9769C12.6179 8.6254 12.8686 8.30622 13.2201 8.264C14.08 8.1607 14.8533 7.29719 14.8533 6.15319C14.8533 5.06779 14.1878 4.2366 13.404 4.02476C13.0623 3.9324 12.8601 3.58046 12.9524 3.23869Z" fill="#494E57"/>
<path fill-rule="evenodd" clip-rule="evenodd" d="M14.8652 12.0744C14.9329 11.727 15.2696 11.5002 15.617 11.568C17.1946 11.8756 18.3332 13.2577 18.3332 14.865V15.3106C18.3332 15.7051 18.2148 16.267 17.7002 16.596C17.3537 16.8174 16.8163 17.0534 15.9878 17.2211C15.6408 17.2913 15.3026 17.0669 15.2323 16.7199C15.1621 16.3729 15.3865 16.0347 15.7335 15.9645C16.4404 15.8214 16.8224 15.6354 17.0097 15.5157L17.0112 15.5143C17.0126 15.5125 17.0176 15.5058 17.0238 15.4906C17.0374 15.4575 17.0511 15.398 17.0511 15.3106V14.865C17.0511 13.8711 16.3471 13.0166 15.3716 12.8263C15.0242 12.7586 14.7974 12.4219 14.8652 12.0744Z" fill="#494E57"/>
</g>
</g>
</svg>
