<svg xmlns="http://www.w3.org/2000/svg" viewBox="62.14 59.53 487.37 372.42">
    <g fill="#385b55">
        <path d="M254.53 59.531l-23.975 66.426c-1.3 4.7 8.014-.114-87.586-.114-77 0-45.596 4.669-47.996 5.869-8.1 4.2 3.94 5.961 11.44 10.961 2.4 1.6-44.144 7.57 97.056 7.77l155.4 2.1c3.6 2.1 6.8 7.6 6.8 11.6 0 4.5-2.8 9.4-6.7 11.7-3.4 2-4.5 2-108.4 2-115.3 0-54.741 4.132-58.041 10.432-3.2 6.1-3.373 1.393 1.927 3.493 1.5.6-23.286 10.275 13.714 10.675 71 .7 66.6.2 70 8.6 2.6 6.6.2 13.6-5.8 17.1-1.7.9-20.818 7.726-85.418 8.126 0 0-84.698 7.843 24.802 8.543 109 .7 93.116 9.931 96.916 16.331 4 6.5 1.7 15.3-4.9 18.6-3.9 2.1-5.4 2.1-63.5 2.1h-59.4l-7.6 22.8-7.6 23.5c0 .4 63.9.7 142.1.7h142l1.6-3.7c.8-2.1 6.8-19.3 13.3-38.3l46.5-135.5 15.6-45.4 3.9-12.3c0-.4-10.7-.8-23.8-.8s-71.318-1.126-71.618-1.426c-.4-.3 10.716-30.834 10.716-31.334 0-.4-191.437-.552-191.437-.552z"/>
        <path d="M270.605 75.247c-1.6 4.4-15.3 44.3-15.8 46.3-1.3 4.7 2.6 4.5-93 4.5-77 0-90.8.2-93.2 1.4-8.1 4.2-8.7 16.3-1.2 21.3 2.4 1.6 13.7 1.7 154.9 1.9l155.4 2.1c3.6 2.1 6.8 7.6 6.8 11.6 0 4.5-2.8 9.4-6.7 11.7-3.4 2-4.5 2-108.4 2-115.3 0-109.1-.3-112.4 6-3.2 6.1-.9 14.8 4.4 16.9 1.5.6 28.6 1.3 65.6 1.7 71 .7 66.6.2 70 8.6 2.6 6.6.2 13.6-5.8 17.1-1.7.9-21.9 1.3-86.5 1.7l-84.4.5-2.8 3.2c-3.8 4.3-4.7 9.1-2.4 13.8 3.2 6.9-4.1 6.4 105.4 7.1 109 .7 103.2.3 107 6.7 4 6.5 1.7 15.3-4.9 18.6-3.9 2.1-5.4 2.1-63.5 2.1h-59.4l-7.6 22.8-7.6 23.5c0 .4 63.9.7 142.1.7h142l1.6-3.7c.8-2.1 6.8-19.3 13.3-38.3l46.5-135.5 15.6-45.4 3.9-12.3c0-.4-10.7-.8-23.8-.8s-24.1-.3-24.4-.6c-.4-.3.7-4.4 2.3-9.2 1.6-4.7 2.9-8.9 2.9-9.4 0-.4-52.9-.8-117.5-.8h-117.5l-.9 2.2z"/>
    </g>
    <path fill="#556375"
          d="M270.605 75.247c-1.6 4.4-15.3 44.3-15.8 46.3-1.3 4.7 2.6 4.5-93 4.5-77 0-90.8.2-93.2 1.4-8.1 4.2-8.7 16.3-1.2 21.3 2.4 1.6 13.7 1.7 154.9 1.9l155.4 2.1c3.6 2.1 6.8 7.6 6.8 11.6 0 4.5-2.8 9.4-6.7 11.7-3.4 2-4.5 2-108.4 2-115.3 0-109.1-.3-112.4 6-3.2 6.1-.9 14.8 4.4 16.9 1.5.6 28.6 1.3 65.6 1.7 71 .7 66.6.2 70 8.6 2.6 6.6.2 13.6-5.8 17.1-1.7.9-21.9 1.3-86.5 1.7l-84.977.771s-2.819 2.304-4.474 5.68c-1.7 3.468-2.32 9.213-.26 12.214 4.304 6.27-3.989 5.235 105.511 5.935 109 .7 103.2.3 107 6.7 4 6.5 1.7 15.3-4.9 18.6-3.9 2.1-5.4 2.1-63.5 2.1h-59.4l-7.6 22.8-7.6 23.5c0 .4 63.9.7 142.1.7h142l1.6-3.7c.8-2.1 6.8-19.3 13.3-38.3l46.5-135.5 15.6-45.4 3.9-12.3c0-.4-10.7-.8-23.8-.8s-24.1-.3-24.4-.6c-.4-.3.7-4.4 2.3-9.2 1.6-4.7 2.9-8.9 2.9-9.4 0-.4-52.9-.8-117.5-.8h-117.5l-.9 2.2zm39.5 275.3c-1.4 2.1-12.8 21.7-21.6 37.1-8.2 14.3-11.4 19.4-12.1 19.4-.5 0-5.5-2.9-11.1-6.3-24.6-15.2-35.9-21.8-36.7-21.5-.5.2-4.8 3.9-9.7 8.3l-14.9 13.4c-3.3 2.9-6.8 6.2-7.7 7.3-2.5 2.9-2.3 8 .5 10.5 4.6 4.2 9 3.5 15.2-2.4s18.3-16.3 18.9-16.3c.4 0 6 3.2 12.4 7.1 24.2 14.7 38.1 22.9 39.1 22.9s4.8-6.2 18.8-30.5l18.6-32c5.7-9.9 10.3-18.3 10-18.8-.2-.4-4.4-.7-9.2-.7-8.4 0-9 .1-10.5 2.5zm70.2-2c-.3.3 1.2 9.2 3.3 19.8l13.4 63.6c.2.2 11.2-6.1 24.5-14 19.6-11.7 24.3-15 25.5-17.6 1.4-2.9 1.4-3.6 0-6.2-3.7-7.2-7.4-6.8-23.4 2.9-7.3 4.4-13.7 8-14.2 8-1.1 0-.4 2.9-8.6-37.5-2-9.9-4.1-18.3-4.7-18.7-1.3-.9-15-1.1-15.8-.3z"/>
</svg>